<svg width="189" height="32" viewBox="0 0 189 32" fill="none" xmlns="http://www.w3.org/2000/svg">
<path fill-rule="evenodd" clip-rule="evenodd" d="M28 18.6158L27.9679 18.7907L27.9657 18.8007C27.9186 19.0603 27.8736 19.3089 27.8185 19.5555C27.2451 22.1205 25.7641 24.0557 23.3606 25.2264C20.4297 26.654 17.5179 26.474 14.7524 24.7509C14.1312 24.3638 13.5841 23.8489 13.0545 23.3423C11.8508 22.191 10.6547 21.0323 9.45859 19.8736L9.45092 19.8661C8.49039 18.9354 7.52987 18.0047 6.56533 17.0779C5.95286 16.4896 5.63475 15.8176 5.79179 14.9786C5.93277 14.2246 6.39988 13.7072 7.12959 13.3572L6.89074 13.1225C6.71178 12.946 6.53611 12.7729 6.35606 12.6044C6.01932 12.2893 5.75016 11.9369 5.63585 11.4873C5.33344 10.2991 6.008 9.15669 7.21834 8.81004C7.25157 8.80049 7.28444 8.78986 7.32096 8.77802L7.38488 8.75758C7.26983 7.85683 7.55434 7.10804 8.31691 6.57324C9.0857 6.0344 9.90635 6.03389 10.7175 6.41121C10.784 6.32736 10.8475 6.24086 10.9107 6.1545L10.9162 6.14636C11.0568 5.95332 11.1967 5.76144 11.3683 5.60197C12.2251 4.80706 13.5658 4.79373 14.4131 5.59583C15.4573 6.58421 16.4876 7.58652 17.5175 8.58879C17.9496 9.0091 18.3816 9.42941 18.8148 9.84867C19.2998 10.3181 19.7848 10.7874 20.2705 11.2561C20.3121 11.2966 20.3585 11.3327 20.4498 11.3503L20.3918 11.1058C20.3483 10.9227 20.3048 10.7394 20.2599 10.5567C20.2011 10.3181 20.1398 10.0802 20.078 9.84217C19.9484 9.3411 19.8187 8.84003 19.7161 8.33385C19.4641 7.09341 20.3154 5.86582 21.5784 5.59784C22.8895 5.31961 24.1919 6.07009 24.4932 7.32015C24.9161 9.07373 25.4522 10.7888 26.2269 12.4277C26.3956 12.7847 26.5746 13.1372 26.7539 13.4896C26.9153 13.8073 27.0767 14.125 27.2305 14.4461C27.6381 15.2958 27.8711 16.1935 27.9821 17.1331C28 17.6252 28 18.1099 28 18.6158ZM16.9792 12.3697C17.1899 12.5737 17.2688 12.8119 17.1797 13.0935C17.0979 13.3517 16.9054 13.4943 16.6432 13.5416C16.3751 13.5899 16.1633 13.4776 15.9755 13.2949C14.0826 11.456 12.1875 9.61897 10.2917 7.78292C9.89831 7.40177 9.37751 7.39239 9.00316 7.75193C8.63758 8.10296 8.65438 8.62281 9.04589 9.00143L14.7367 14.5039C15.0643 14.8208 15.0943 15.2309 14.8098 15.508C14.5238 15.7867 14.095 15.7696 13.7711 15.4601C13.3328 15.0412 12.8982 14.6185 12.4625 14.1972L10.9275 12.714C10.1094 11.9233 9.29168 11.1327 8.47286 10.343C8.10984 9.99322 7.6135 9.96813 7.25449 10.2727C6.82719 10.6353 6.8334 11.1773 7.27312 11.6023L9.6748 13.9229C10.8325 15.0412 11.9903 16.1594 13.1469 17.2785C13.4709 17.5916 13.488 17.9854 13.2013 18.2644C12.9161 18.542 12.5023 18.5325 12.1828 18.2322C11.9713 18.0336 11.7631 17.8315 11.5549 17.6294L11.2708 17.3535L10.4954 16.6049C9.88151 16.0125 9.26758 15.42 8.65584 14.8259C8.37389 14.5522 8.04629 14.4592 7.67523 14.601C7.07627 14.8299 6.94479 15.5401 7.41556 15.9996C7.94184 16.5134 8.4714 17.0239 9.00133 17.5343C9.28949 17.812 9.57765 18.0897 9.86508 18.3679C10.3621 18.8487 10.8581 19.3308 11.3537 19.813C12.4092 20.8395 13.4647 21.8659 14.5329 22.8799C16.6381 24.878 19.9243 25.3833 22.5524 24.1414C26.2196 22.4085 27.6764 18.1853 25.8047 14.6669C24.6279 12.4551 23.7244 10.1502 23.1755 7.71628C23.14 7.55942 23.0597 7.39974 22.9596 7.2713C22.6565 6.88277 22.1072 6.77063 21.6576 6.98372C21.1759 7.21216 20.9615 7.69912 21.0981 8.2441C21.5287 9.95994 21.9589 11.6758 22.384 13.3929C22.414 13.5135 22.4304 13.6512 22.4016 13.7692C22.2876 14.2374 21.6835 14.5392 21.177 14.0383C20.6503 13.5175 20.1179 13.0026 19.5854 12.4876L19.581 12.4838L18.9831 11.905C17.1826 10.1587 15.3821 8.41254 13.5812 6.66682C13.1656 6.26387 12.6532 6.23801 12.2784 6.59849C11.9023 6.95999 11.922 7.46244 12.3318 7.86091C13.0881 8.59651 13.8452 9.33127 14.6126 10.0757L16.9792 12.3697Z" fill="white"/>
<path d="M5 22.3759C5.02228 22.3456 5.04346 22.315 5.06428 22.2848L5.06537 22.2838C5.14024 22.1757 5.21146 22.0727 5.30861 22.0033C5.66506 21.7489 6.15226 21.9061 6.34729 22.3332C6.65371 23.0027 7.06239 23.604 7.58392 24.1331C8.28404 24.8436 9.11053 25.3669 10.0623 25.7052C10.3468 25.8063 10.502 26.0158 10.5199 26.3045C10.5374 26.5872 10.399 26.8018 10.1419 26.931C9.92753 27.0388 9.70657 27.0076 9.48707 26.9242C7.4791 26.1618 6.02152 24.8323 5.11322 22.9354C5.08692 22.8808 5.05917 22.8269 5.01607 22.7682C5 22.6412 5 22.5188 5 22.3759Z" fill="white"/>
<path d="M11.7697 24.1502C11.7573 23.8198 11.5506 23.6017 11.1094 23.4638C10.4681 23.2192 9.92132 22.8684 9.45201 22.4024C9.05027 22.0035 8.74678 21.5434 8.50792 21.0378C8.35088 20.7052 8.00319 20.5656 7.65331 20.6749C7.33448 20.7744 7.13689 21.0931 7.20336 21.4265C7.22674 21.5424 7.28298 21.6543 7.33703 21.7618C8.07112 23.2218 9.2212 24.2339 10.8037 24.7745C11.3051 24.9458 11.7876 24.629 11.7697 24.1502Z" fill="white"/>
<path d="M66.4971 2C64.2879 2 62.4971 3.79086 62.4971 6V22C62.4971 24.2091 64.2879 26 66.4971 26L76.5 26C78.7091 26 80.5 24.2092 80.5 22V11H80.4971V8.82843C80.4971 8.03278 80.181 7.26972 79.6184 6.70711L75.79 2.87868C75.2274 2.31607 74.4643 2 73.6686 2L66.4971 2ZM76.5 24L66.4971 24C65.3925 24 64.4971 23.1046 64.4971 22V6C64.4971 4.89543 65.3925 4 66.4971 4L72.4971 4V7C72.4971 8.65685 73.8402 10 75.4971 10H78.4971V12.1227L78.5 12.122V22C78.5 23.1046 77.6046 24 76.5 24ZM78.0829 8H75.4971C74.9448 8 74.4971 7.55228 74.4971 7V4.41421L78.0829 8ZM58.5 8C58.5 6.89543 59.3954 6 60.5 6V22C60.5 25.3137 63.1863 28 66.5 28L76.5 28C76.5 29.1046 75.6046 30 74.5 30H66.0789C61.8932 30 58.5 26.6068 58.5 22.4211V8Z" fill="white"/>
<path d="M108.5 10V22C108.5 24.2091 110.291 26 112.5 26H128.5C130.709 26 132.5 24.2091 132.5 22V12C132.5 9.79086 130.709 8 128.5 8L118.851 8L116.625 6.21913C116.447 6.07728 116.227 6 116 6L112.5 6C110.291 6 108.5 7.79086 108.5 10ZM110.5 10C110.5 8.89543 111.395 8 112.5 8H115.649L117.385 9.389L115.613 11H110.5V10ZM119.687 10H128.5C129.605 10 130.5 10.8954 130.5 12V22C130.5 23.1046 129.605 24 128.5 24H112.5C111.395 24 110.5 23.1046 110.5 22V13H116C116.249 13 116.489 12.9072 116.673 12.7399L119.687 10Z" fill="white"/>
<path d="M158.5 11C158.5 8.23858 160.739 6 163.5 6L181.5 6C184.261 6 186.5 8.23858 186.5 11V21C186.5 23.7614 184.261 26 181.5 26H163.5C160.739 26 158.5 23.7614 158.5 21V11ZM163.5 8C161.843 8 160.5 9.34315 160.5 11V21C160.5 22.6569 161.843 24 163.5 24H181.5C183.157 24 184.5 22.6569 184.5 21V11C184.5 9.34315 183.157 8 181.5 8L163.5 8Z" fill="white"/>
</svg>
